PathFileType        4      (X/Y/Z)      C:\Users\aurel\Documents\opensim-MSc\data\transformed_83_35.trc
DataRate	CameraRate	NumFrames	NumMarkers	Units	OrigDataRate	OrigDataStartFrame	OrigNumFrames
120.0	120.0	5	41	mm	120.0	394	1048
Frame#	Time	LFWT			RFWT			LBWT			RBWT			LTHI			LKNE			LSHN			LANK			LHEE			LMT5			LTOE			RTHI			RKNE			RSHN			RANK			RHEE			RMT5			RTOE			CLAV			STRN			C7			T10			RBAC			LFHD			RFHD			LBHD			RBHD			LSHO			LUPA			LELB			LFRM			LWRA			LWRB			LFIN			RSHO			RUPA			RELB			RFRM			RWRA			RWRB			RFIN
		X1	Y1	Z1	X2	Y2	Z2	X3	Y3	Z3	X4	Y4	Z4	X5	Y5	Z5	X6	Y6	Z6	X7	Y7	Z7	X8	Y8	Z8	X9	Y9	Z9	X10	Y10	Z10	X11	Y11	Z11	X12	Y12	Z12	X13	Y13	Z13	X14	Y14	Z14	X15	Y15	Z15	X16	Y16	Z16	X17	Y17	Z17	X18	Y18	Z18	X19	Y19	Z19	X20	Y20	Z20	X21	Y21	Z21	X22	Y22	Z22	X23	Y23	Z23	X24	Y24	Z24	X25	Y25	Z25	X26	Y26	Z26	X27	Y27	Z27	X28	Y28	Z28	X29	Y29	Z29	X30	Y30	Z30	X31	Y31	Z31	X32	Y32	Z32	X33	Y33	Z33	X34	Y34	Z34	X35	Y35	Z35	X36	Y36	Z36	X37	Y37	Z37	X38	Y38	Z38	X39	Y39	Z39	X40	Y40	Z40	X41	Y41	Z41
394	3.275	-748.6224999999998	866.9752800000001	396.73641999999995	-757.6362299999998	858.5118400000001	661.97046	-919.6514299999999	928.5258800000001	434.47002999999995	-923.7872899999999	935.6080300000001	574.6410499999998	-721.5974099999999	583.1125500000002	351.10851999999994	-667.77106	443.87747000000013	390.58325	-628.97357	211.38638000000012	382.35687	-614.75891	79.1340100000001	410.13174	-664.48792	51.240550000000106	456.51526	-506.00903	49.567870000000084	392.43143	-476.84433	86.43324000000008	474.33432	-851.0389399999999	647.2552500000002	679.11426	-877.87964	423.2825300000002	637.70245	-938.21075	320.2606200000002	655.98267	-1031.89075	66.47554000000015	584.16003	-1104.24109	36.47280000000017	536.61481	-935.60315	27.830630000000152	617.91809	-894.83533	46.35904000000014	539.91284	-738.3791499999999	1278.8704800000003	487.12456999999995	-736.3834799999998	1101.6933600000002	495.40664999999996	-853.9302999999999	1374.5179400000002	487.43569999999994	-947.6019899999999	1166.0179400000002	504.79751999999996	-930.3814699999999	1258.5319800000002	579.0460199999999	-614.8268399999997	1477.70557	405.4695099999999	-627.4540399999997	1481.94397	565.9330399999999	-767.8255599999998	1489.8780500000003	424.4684799999999	-777.9923699999998	1496.0835000000002	534.1173699999999	-822.8123199999999	1353.7404800000002	346.07866999999993	-902.6684599999999	1146.7921100000003	272.84740999999997	-936.7156999999999	1052.9537400000002	270.93801999999994	-955.1628999999999	885.8208600000002	258.77721999999994	-837.0383899999999	778.1843300000002	268.16167999999993	-975.5156299999999	782.3250100000001	216.67600999999993	-893.1019299999999	716.0845300000001	231.68679999999995	-808.5702499999999	1355.9337200000002	639.6809099999999	-837.7432899999999	1247.3855000000003	720.6389199999999	-889.3792699999999	1053.9903600000002	751.9774199999999	-880.1415399999998	977.2722200000001	750.9641699999999	-662.0518199999999	858.7172900000002	775.28174	-781.3451499999999	798.3233000000001	829.00311	-740.5816699999999	775.3456400000001	817.09607
395	3.283	-741.1397699999999	866.4062500000001	396.18407999999994	-750.0236199999999	857.5255700000001	661.26935	-912.4445199999999	927.8100000000001	433.90761999999995	-916.0504799999999	934.7934000000001	574.1738899999999	-714.6474599999999	582.2144800000001	352.05535999999995	-662.17139	443.0545700000001	390.91809	-626.57745	209.6878200000001	383.49203	-613.60156	77.94415000000009	410.93317	-663.45081	51.030550000000105	457.85565	-506.01917	45.89240000000009	392.24408	-474.7774	81.25050000000009	474.12534	-844.6152999999999	646.5148300000001	678.47791	-872.16046	422.76849000000016	637.09088	-933.94	320.44073000000014	655.34442	-1031.39697	68.07845000000016	584.58685	-1104.29602	38.39944000000017	536.57965	-935.61511	28.00811000000015	617.87817	-894.37756	45.845300000000144	539.80212	-731.8884299999999	1278.3596200000002	486.17623999999995	-734.9326199999999	1099.7248500000003	494.7355999999999	-847.6090699999999	1374.0819100000003	486.26937999999996	-940.7526899999999	1165.1816400000002	504.31811999999996	-923.5477899999998	1257.6254900000001	578.3264799999998	-608.5195299999998	1477.54834	404.4996899999999	-621.3753699999997	1482.07361	564.9912699999999	-761.6565599999998	1489.2941900000003	423.36275999999987	-771.6107799999997	1495.6658900000002	532.9879199999999	-816.7430399999998	1353.3217800000002	345.01259999999996	-895.7544599999999	1145.4580100000003	272.24038999999993	-930.0795899999999	1051.9158900000002	270.30782999999997	-948.7886399999999	884.7596400000001	258.21300999999994	-831.1411099999999	776.7694700000001	267.41775999999993	-969.4985999999999	781.5429700000001	216.05294999999995	-887.1450799999999	714.7471300000001	231.05854999999994	-801.9903599999999	1355.4909700000003	638.8028599999999	-831.4716799999999	1247.1148700000003	719.7438999999999	-882.8751199999999	1053.6920200000002	751.0620099999999	-873.6227999999999	976.9667400000001	750.2228399999999	-655.5310099999999	859.0141600000001	775.76434	-774.1920799999999	798.0718400000001	828.797	-733.6694299999999	775.3136000000001	817.20776
396	3.292	-733.7373699999999	866.2932700000001	395.54485999999997	-742.2139299999999	856.6944000000001	660.77234	-905.2944899999999	927.4453100000001	433.49441999999993	-907.9801599999998	934.2451200000002	573.6685199999998	-708.3408799999999	581.6460000000001	352.42232999999993	-656.1333	442.7380100000001	391.0769	-623.61273	208.9434800000001	384.11783	-611.32043	77.0147600000001	411.5405	-661.9635	51.454440000000105	458.69473	-505.88889	43.438620000000085	391.96881	-471.95529	76.73389000000009	474.09177	-837.7245499999999	645.7418200000001	677.6781	-865.92566	422.0103500000002	636.13739	-929.31689	320.79141000000016	654.75507	-1031.29504	70.26712000000016	584.7146	-1104.10217	41.04122000000017	537.01074	-935.74829	28.48193000000015	617.76471	-893.98883	45.70214000000014	539.40387	-725.2387699999999	1278.3586400000002	485.36751999999996	-726.3381299999999	1100.2471900000003	493.8549499999999	-841.3554099999999	1374.0673800000002	485.37047999999993	-933.7751499999999	1164.3669400000003	503.7234199999999	-916.9074699999999	1257.1740700000003	577.4074099999999	-602.4596599999998	1477.14709	402.84249999999986	-614.4780899999997	1481.75305	563.3220199999998	-755.3547399999998	1489.2702600000002	422.2589399999999	-765.4619099999998	1495.7796600000001	531.9578199999999	-810.5659199999999	1352.8216600000003	343.92421999999993	-889.1043699999999	1144.6516100000001	271.5352199999999	-923.1740699999999	1050.6867700000003	269.82464999999996	-942.2511599999999	883.8047500000001	257.75469999999996	-824.9502599999998	775.3455200000001	266.71914999999996	-963.2380399999998	780.7603800000002	215.47529999999995	-881.2672099999999	713.8100000000001	230.36713999999995	-795.5935099999999	1355.3588900000002	637.8467999999999	-825.0580399999999	1246.9963400000001	718.8898299999998	-876.3320899999999	1053.4554400000002	750.0698899999999	-867.2227199999999	976.6713300000001	749.2782599999999	-648.8570599999999	859.0560900000002	775.91449	-767.3082299999999	797.7530500000001	828.63464	-727.0904499999999	775.1850000000001	817.2359
397	3.3	-726.0007899999999	866.5047000000001	395.0944799999999	-734.6865199999999	856.0641500000002	660.47589	-897.6953099999998	927.2044100000002	433.10860999999994	-900.5324699999999	934.0157500000001	573.0808099999999	-702.2498199999999	581.4823600000001	352.45012999999994	-650.26483	442.5855100000001	391.22141	-619.90338	208.58699000000007	384.31	-608.67023	76.3291200000001	411.83115	-660.41895	52.1981000000001	458.71771	-504.50708	42.19660000000008	391.66779	-469.45801	73.84747000000009	474.30124	-830.5983299999999	645.2509800000001	676.67383	-859.60583	421.47202000000016	635.15808	-924.39374	321.47607000000016	654.22632	-1030.93555	72.68147000000016	584.6441	-1103.50342	44.06650000000017	537.39856	-935.76056	28.749060000000153	617.35559	-893.65057	45.841160000000144	539.23907	-718.7933999999999	1278.8686500000001	484.4755599999999	-717.4327999999999	1100.6262200000003	493.26098999999994	-835.1332999999998	1374.0529800000002	484.34820999999994	-927.0419299999999	1164.0481000000002	502.91887999999994	-910.4301799999998	1256.9877900000001	576.3659099999999	-595.8464399999998	1477.04004	402.55169999999987	-608.3204299999998	1481.79846	563.0718399999998	-748.8612099999998	1489.5864300000003	421.27175999999986	-759.4612399999997	1496.2340100000001	530.9245599999999	-804.2225999999999	1352.4276100000002	342.88195999999994	-882.3478399999999	1144.0019500000003	270.79540999999995	-915.7248499999998	1049.5588400000001	269.14339999999993	-935.4805299999999	883.1188400000001	257.2903099999999	-818.3006599999999	773.9486700000001	266.14516999999995	-956.8815299999999	780.1718100000002	214.94330999999994	-875.3859299999999	713.1939700000001	229.26772999999994	-789.4676499999999	1355.4249300000001	636.7889999999999	-818.6772499999998	1246.8471700000002	717.9533699999998	-869.7731899999999	1053.0550500000002	749.0728799999999	-860.7948599999999	976.3884300000001	748.2486599999999	-642.1922599999999	859.0838600000001	775.81726	-761.2089199999999	797.9926800000001	828.14771	-720.8040799999999	775.6640000000001	816.6817
398	3.308	-718.1594199999998	866.8047500000001	394.8187899999999	-727.8437499999999	855.4870600000002	660.24591	-889.9274299999998	927.1345200000001	432.57280999999995	-893.5792799999999	933.8522900000002	572.4830899999998	-695.7983399999999	581.7766700000001	352.60946999999993	-644.74298	442.7404800000001	391.12866	-615.63171	208.13107000000008	384.34119	-606.20233	75.9203000000001	411.93524	-658.64111	53.044340000000105	458.33844	-502.15182	41.54529000000009	391.97229	-467.34985	72.09321000000008	474.86002	-823.7834499999999	644.8632800000001	675.97791	-853.10425	421.23535000000015	634.37347	-918.98529	322.13910000000016	653.69061	-1030.48401	75.67736000000015	585.0249	-1102.53625	47.45531000000017	537.67877	-935.39368	28.62457000000015	616.80951	-893.31714	45.90362000000014	539.33392	-712.4728399999999	1279.2905300000002	483.54983999999996	-710.0366799999999	1100.7874800000002	492.6944899999999	-828.6612499999999	1374.1992200000002	483.10122999999993	-920.3842799999999	1164.2490200000002	502.11675999999994	-903.9760699999999	1256.8505900000002	575.3070699999998	-589.3943499999998	1477.51904	401.4601699999999	-601.9443399999998	1482.38843	561.8516199999999	-742.2699599999997	1489.9464100000002	420.1763599999999	-753.1807899999998	1496.7045900000003	529.8536999999999	-797.8772599999999	1352.2293700000002	341.64538999999996	-875.2333399999999	1143.3367900000003	269.8545199999999	-908.2882699999999	1048.8107900000002	268.45946999999995	-928.7175299999999	882.6067500000001	256.77233999999993	-811.7901599999999	772.7539700000001	265.4728999999999	-950.6115099999998	779.6844500000001	214.55471999999995	-869.1423299999999	712.6084000000001	228.15032999999994	-783.1338499999999	1355.5682400000003	635.7267499999999	-812.5229499999999	1246.7628200000001	716.9496499999999	-863.5784299999999	1053.0402800000002	747.6909199999999	-854.3286699999999	976.3739000000002	747.1101699999999	-636.2845499999999	859.2601900000001	775.97229	-756.6477699999999	798.8212300000001	827.13763	-715.3764599999998	776.4332300000001	815.93494
